<mxfile host="Electron" agent="Mozilla/5.0 (Windows NT 10.0; Win64; x64) AppleWebKit/537.36 (KHTML, like Gecko) draw.io/24.7.17 Chrome/128.0.6613.36 Electron/32.0.1 Safari/537.36" version="24.7.17">
  <diagram name="Страница — 1" id="2sj5S2AndOfbMayqN8SH">
    <mxGraphModel dx="636" dy="329" grid="1" gridSize="10" guides="1" tooltips="1" connect="1" arrows="1" fold="1" page="1" pageScale="1" pageWidth="827" pageHeight="1169" math="0" shadow="0">
      <root>
        <mxCell id="0" />
        <mxCell id="1" parent="0" />
        <mxCell id="Pd9s20KmXWEFk_kzRAq3-1" value="&lt;font style=&quot;font-size: 14px;&quot;&gt;Начало&lt;/font&gt;" style="ellipse;whiteSpace=wrap;html=1;" vertex="1" parent="1">
          <mxGeometry x="320" y="10" width="110" height="70" as="geometry" />
        </mxCell>
        <mxCell id="Pd9s20KmXWEFk_kzRAq3-2" value="" style="endArrow=none;html=1;rounded=0;entryX=0.5;entryY=1;entryDx=0;entryDy=0;" edge="1" parent="1" target="Pd9s20KmXWEFk_kzRAq3-1">
          <mxGeometry width="50" height="50" relative="1" as="geometry">
            <mxPoint x="375" y="200" as="sourcePoint" />
            <mxPoint x="440" y="240" as="targetPoint" />
          </mxGeometry>
        </mxCell>
        <mxCell id="Pd9s20KmXWEFk_kzRAq3-4" value="" style="endArrow=none;dashed=1;html=1;rounded=0;" edge="1" parent="1">
          <mxGeometry width="50" height="50" relative="1" as="geometry">
            <mxPoint x="380" y="130" as="sourcePoint" />
            <mxPoint x="480" y="130" as="targetPoint" />
          </mxGeometry>
        </mxCell>
        <mxCell id="Pd9s20KmXWEFk_kzRAq3-5" value="" style="endArrow=none;html=1;rounded=0;" edge="1" parent="1">
          <mxGeometry width="50" height="50" relative="1" as="geometry">
            <mxPoint x="640" y="170" as="sourcePoint" />
            <mxPoint x="480" y="170" as="targetPoint" />
          </mxGeometry>
        </mxCell>
        <mxCell id="Pd9s20KmXWEFk_kzRAq3-6" value="" style="endArrow=none;html=1;rounded=0;" edge="1" parent="1">
          <mxGeometry width="50" height="50" relative="1" as="geometry">
            <mxPoint x="640" y="80" as="sourcePoint" />
            <mxPoint x="480" y="80" as="targetPoint" />
          </mxGeometry>
        </mxCell>
        <mxCell id="Pd9s20KmXWEFk_kzRAq3-7" value="" style="endArrow=none;html=1;rounded=0;" edge="1" parent="1">
          <mxGeometry width="50" height="50" relative="1" as="geometry">
            <mxPoint x="480" y="170" as="sourcePoint" />
            <mxPoint x="480" y="80" as="targetPoint" />
          </mxGeometry>
        </mxCell>
        <mxCell id="Pd9s20KmXWEFk_kzRAq3-9" value="&lt;div style=&quot;color: rgb(204, 204, 204); background-color: rgb(31, 31, 31); font-family: Consolas, &amp;quot;Courier New&amp;quot;, monospace; font-size: 14px; line-height: 19px; white-space: pre;&quot;&gt;&lt;div&gt;&lt;span style=&quot;color: #c586c0;&quot;&gt;#include&lt;/span&gt;&lt;span style=&quot;color: #569cd6;&quot;&gt; &lt;/span&gt;&lt;span style=&quot;color: #ce9178;&quot;&gt;&amp;lt;iostream&amp;gt;&lt;/span&gt;&lt;/div&gt;&lt;div&gt;&lt;span style=&quot;color: #c586c0;&quot;&gt;using&lt;/span&gt; &lt;span style=&quot;color: #569cd6;&quot;&gt;namespace&lt;/span&gt; &lt;span style=&quot;color: #4ec9b0;&quot;&gt;std&lt;/span&gt;;&lt;/div&gt;&lt;div&gt;&lt;div style=&quot;line-height: 19px;&quot;&gt;&lt;span style=&quot;color: #569cd6;&quot;&gt;int&lt;/span&gt; &lt;span style=&quot;color: #9cdcfe;&quot;&gt;a&lt;/span&gt;,&lt;span style=&quot;color: #9cdcfe;&quot;&gt;b&lt;/span&gt;&lt;span style=&quot;color: #d4d4d4;&quot;&gt;=&lt;/span&gt;&lt;span style=&quot;color: #b5cea8;&quot;&gt;0&lt;/span&gt;;&lt;/div&gt;&lt;/div&gt;&lt;/div&gt;" style="text;html=1;align=center;verticalAlign=middle;whiteSpace=wrap;rounded=0;" vertex="1" parent="1">
          <mxGeometry x="480" y="90" width="170" height="70" as="geometry" />
        </mxCell>
        <mxCell id="Pd9s20KmXWEFk_kzRAq3-16" style="edgeStyle=orthogonalEdgeStyle;rounded=0;orthogonalLoop=1;jettySize=auto;html=1;exitX=0.5;exitY=1;exitDx=0;exitDy=0;entryX=0.5;entryY=0;entryDx=0;entryDy=0;" edge="1" parent="1" source="Pd9s20KmXWEFk_kzRAq3-10" target="Pd9s20KmXWEFk_kzRAq3-11">
          <mxGeometry relative="1" as="geometry" />
        </mxCell>
        <mxCell id="Pd9s20KmXWEFk_kzRAq3-10" value="&lt;div style=&quot;color: rgb(204, 204, 204); background-color: rgb(31, 31, 31); font-family: Consolas, &amp;quot;Courier New&amp;quot;, monospace; font-size: 14px; line-height: 19px; white-space: pre;&quot;&gt;&lt;span style=&quot;color: #569cd6;&quot;&gt;int&lt;/span&gt; &lt;span style=&quot;color: #dcdcaa;&quot;&gt;main&lt;/span&gt;()&lt;/div&gt;" style="shape=process;whiteSpace=wrap;html=1;backgroundOutline=1;" vertex="1" parent="1">
          <mxGeometry x="320" y="200" width="110" height="40" as="geometry" />
        </mxCell>
        <mxCell id="Pd9s20KmXWEFk_kzRAq3-11" value="&lt;div style=&quot;color: rgb(204, 204, 204); background-color: rgb(31, 31, 31); font-family: Consolas, &amp;quot;Courier New&amp;quot;, monospace; font-size: 14px; line-height: 19px; white-space: pre;&quot;&gt;&lt;span style=&quot;color: #9cdcfe;&quot;&gt;cout&lt;/span&gt;&lt;span style=&quot;color: #dcdcaa;&quot;&gt;&amp;lt;&amp;lt;&lt;/span&gt; &lt;span style=&quot;color: #ce9178;&quot;&gt;&quot;Enter a and b values for ax=b: &quot;&lt;/span&gt;;&lt;/div&gt;" style="shape=parallelogram;perimeter=parallelogramPerimeter;whiteSpace=wrap;html=1;fixedSize=1;" vertex="1" parent="1">
          <mxGeometry x="195" y="270" width="360" height="30" as="geometry" />
        </mxCell>
        <mxCell id="Pd9s20KmXWEFk_kzRAq3-29" style="edgeStyle=orthogonalEdgeStyle;rounded=0;orthogonalLoop=1;jettySize=auto;html=1;" edge="1" parent="1" source="Pd9s20KmXWEFk_kzRAq3-12" target="Pd9s20KmXWEFk_kzRAq3-20">
          <mxGeometry relative="1" as="geometry" />
        </mxCell>
        <mxCell id="Pd9s20KmXWEFk_kzRAq3-12" value="&lt;div style=&quot;color: rgb(204, 204, 204); background-color: rgb(31, 31, 31); font-family: Consolas, &amp;quot;Courier New&amp;quot;, monospace; font-size: 14px; line-height: 19px; white-space: pre;&quot;&gt;&lt;span style=&quot;color: #9cdcfe;&quot;&gt;cin&lt;/span&gt;&lt;span style=&quot;color: #dcdcaa;&quot;&gt;&amp;gt;&amp;gt;&lt;/span&gt;&lt;span style=&quot;color: #9cdcfe;&quot;&gt;a&lt;/span&gt;&lt;span style=&quot;color: #dcdcaa;&quot;&gt;&amp;gt;&amp;gt;&lt;/span&gt;&lt;span style=&quot;color: #9cdcfe;&quot;&gt;b&lt;/span&gt;;&lt;/div&gt;" style="shape=parallelogram;perimeter=parallelogramPerimeter;whiteSpace=wrap;html=1;fixedSize=1;" vertex="1" parent="1">
          <mxGeometry x="310" y="330" width="120" height="30" as="geometry" />
        </mxCell>
        <mxCell id="Pd9s20KmXWEFk_kzRAq3-28" style="edgeStyle=orthogonalEdgeStyle;rounded=0;orthogonalLoop=1;jettySize=auto;html=1;entryX=0.5;entryY=0;entryDx=0;entryDy=0;" edge="1" parent="1" source="Pd9s20KmXWEFk_kzRAq3-13" target="Pd9s20KmXWEFk_kzRAq3-15">
          <mxGeometry relative="1" as="geometry" />
        </mxCell>
        <mxCell id="Pd9s20KmXWEFk_kzRAq3-13" value="&lt;div style=&quot;color: rgb(204, 204, 204); background-color: rgb(31, 31, 31); font-family: Consolas, &amp;quot;Courier New&amp;quot;, monospace; font-size: 14px; line-height: 19px; white-space: pre;&quot;&gt;&lt;span style=&quot;color: #9cdcfe;&quot;&gt;cout&lt;/span&gt;&lt;span style=&quot;color: #dcdcaa;&quot;&gt;&amp;lt;&amp;lt;&lt;/span&gt; &lt;span style=&quot;color: #ce9178;&quot;&gt;&quot;x = &quot;&lt;/span&gt; &lt;span style=&quot;color: #dcdcaa;&quot;&gt;&amp;lt;&amp;lt;&lt;/span&gt; &lt;span style=&quot;color: #9cdcfe;&quot;&gt;b&lt;/span&gt;&lt;span style=&quot;color: #d4d4d4;&quot;&gt;/&lt;/span&gt;&lt;span style=&quot;color: #9cdcfe;&quot;&gt;a&lt;/span&gt;;&lt;/div&gt;" style="shape=parallelogram;perimeter=parallelogramPerimeter;whiteSpace=wrap;html=1;fixedSize=1;" vertex="1" parent="1">
          <mxGeometry x="160" y="520" width="200" height="30" as="geometry" />
        </mxCell>
        <mxCell id="Pd9s20KmXWEFk_kzRAq3-15" value="&lt;div style=&quot;color: rgb(204, 204, 204); background-color: rgb(31, 31, 31); font-family: Consolas, &amp;quot;Courier New&amp;quot;, monospace; font-size: 14px; line-height: 19px; white-space: pre;&quot;&gt;&lt;span style=&quot;color: #c586c0;&quot;&gt;return&lt;/span&gt; &lt;span style=&quot;color: #b5cea8;&quot;&gt;0&lt;/span&gt;;&lt;/div&gt;" style="ellipse;whiteSpace=wrap;html=1;" vertex="1" parent="1">
          <mxGeometry x="330" y="640" width="110" height="50" as="geometry" />
        </mxCell>
        <mxCell id="Pd9s20KmXWEFk_kzRAq3-17" style="edgeStyle=orthogonalEdgeStyle;rounded=0;orthogonalLoop=1;jettySize=auto;html=1;exitX=0.5;exitY=1;exitDx=0;exitDy=0;entryX=0.5;entryY=0;entryDx=0;entryDy=0;" edge="1" parent="1" source="Pd9s20KmXWEFk_kzRAq3-11" target="Pd9s20KmXWEFk_kzRAq3-12">
          <mxGeometry relative="1" as="geometry" />
        </mxCell>
        <mxCell id="Pd9s20KmXWEFk_kzRAq3-20" value="&lt;div style=&quot;color: rgb(204, 204, 204); background-color: rgb(31, 31, 31); font-family: Consolas, &amp;quot;Courier New&amp;quot;, monospace; font-size: 14px; line-height: 19px; white-space: pre;&quot;&gt;&lt;span style=&quot;color: #c586c0;&quot;&gt;if&lt;/span&gt; (&lt;span style=&quot;color: #9cdcfe;&quot;&gt;a&lt;/span&gt;&lt;span style=&quot;color: #d4d4d4;&quot;&gt;!=&lt;/span&gt;&lt;span style=&quot;color: #b5cea8;&quot;&gt;0&lt;/span&gt;)&lt;/div&gt;" style="rhombus;whiteSpace=wrap;html=1;" vertex="1" parent="1">
          <mxGeometry x="305" y="400" width="125" height="60" as="geometry" />
        </mxCell>
        <mxCell id="Pd9s20KmXWEFk_kzRAq3-27" style="edgeStyle=orthogonalEdgeStyle;rounded=0;orthogonalLoop=1;jettySize=auto;html=1;" edge="1" parent="1" source="Pd9s20KmXWEFk_kzRAq3-21" target="Pd9s20KmXWEFk_kzRAq3-15">
          <mxGeometry relative="1" as="geometry" />
        </mxCell>
        <mxCell id="Pd9s20KmXWEFk_kzRAq3-21" value="&lt;div style=&quot;color: rgb(204, 204, 204); background-color: rgb(31, 31, 31); font-family: Consolas, &amp;quot;Courier New&amp;quot;, monospace; font-size: 14px; line-height: 19px; white-space: pre;&quot;&gt;&lt;span style=&quot;color: #9cdcfe;&quot;&gt;cout&lt;/span&gt;&lt;span style=&quot;color: #dcdcaa;&quot;&gt;&amp;lt;&amp;lt;&lt;/span&gt; &lt;span style=&quot;color: #ce9178;&quot;&gt;&quot;Error&quot;&lt;/span&gt;;&lt;/div&gt;" style="shape=parallelogram;perimeter=parallelogramPerimeter;whiteSpace=wrap;html=1;fixedSize=1;" vertex="1" parent="1">
          <mxGeometry x="430" y="520" width="170" height="30" as="geometry" />
        </mxCell>
        <mxCell id="Pd9s20KmXWEFk_kzRAq3-22" value="&lt;font style=&quot;font-size: 14px;&quot;&gt;{&lt;/font&gt;" style="text;html=1;align=center;verticalAlign=middle;whiteSpace=wrap;rounded=0;" vertex="1" parent="1">
          <mxGeometry x="340" y="240" width="40" height="30" as="geometry" />
        </mxCell>
        <mxCell id="Pd9s20KmXWEFk_kzRAq3-24" value="}" style="text;html=1;align=center;verticalAlign=middle;whiteSpace=wrap;rounded=0;" vertex="1" parent="1">
          <mxGeometry x="430" y="650" width="60" height="30" as="geometry" />
        </mxCell>
        <mxCell id="Pd9s20KmXWEFk_kzRAq3-25" style="edgeStyle=orthogonalEdgeStyle;rounded=0;orthogonalLoop=1;jettySize=auto;html=1;exitX=0;exitY=0.5;exitDx=0;exitDy=0;entryX=0.428;entryY=-0.133;entryDx=0;entryDy=0;entryPerimeter=0;" edge="1" parent="1" source="Pd9s20KmXWEFk_kzRAq3-20" target="Pd9s20KmXWEFk_kzRAq3-13">
          <mxGeometry relative="1" as="geometry" />
        </mxCell>
        <mxCell id="Pd9s20KmXWEFk_kzRAq3-26" style="edgeStyle=orthogonalEdgeStyle;rounded=0;orthogonalLoop=1;jettySize=auto;html=1;exitX=1;exitY=0.5;exitDx=0;exitDy=0;entryX=0.562;entryY=-0.053;entryDx=0;entryDy=0;entryPerimeter=0;" edge="1" parent="1" source="Pd9s20KmXWEFk_kzRAq3-20" target="Pd9s20KmXWEFk_kzRAq3-21">
          <mxGeometry relative="1" as="geometry" />
        </mxCell>
        <mxCell id="Pd9s20KmXWEFk_kzRAq3-30" value="1" style="text;html=1;align=center;verticalAlign=middle;whiteSpace=wrap;rounded=0;" vertex="1" parent="1">
          <mxGeometry x="240" y="390" width="60" height="30" as="geometry" />
        </mxCell>
        <mxCell id="Pd9s20KmXWEFk_kzRAq3-31" value="0" style="text;html=1;align=center;verticalAlign=middle;whiteSpace=wrap;rounded=0;" vertex="1" parent="1">
          <mxGeometry x="440" y="390" width="60" height="30" as="geometry" />
        </mxCell>
      </root>
    </mxGraphModel>
  </diagram>
</mxfile>
